<svg width="43" height="42" viewBox="0 0 43 42" fill="none" xmlns="http://www.w3.org/2000/svg">
<path d="M5.375 7.875C5.375 8.2231 5.51657 8.55694 5.76858 8.80308C6.02058 9.04922 6.36237 9.1875 6.71875 9.1875H36.2812C36.6376 9.1875 36.9794 9.04922 37.2314 8.80308C37.4834 8.55694 37.625 8.2231 37.625 7.875C37.625 7.5269 37.4834 7.19306 37.2314 6.94692C36.9794 6.70078 36.6376 6.5625 36.2812 6.5625H6.71875C6.36237 6.5625 6.02058 6.70078 5.76858 6.94692C5.51657 7.19306 5.375 7.5269 5.375 7.875ZM10.75 2.625C10.75 2.9731 10.8916 3.30694 11.1436 3.55308C11.3956 3.79922 11.7374 3.9375 12.0938 3.9375H30.9062C31.2626 3.9375 31.6044 3.79922 31.8564 3.55308C32.1084 3.30694 32.25 2.9731 32.25 2.625C32.25 2.2769 32.1084 1.94306 31.8564 1.69692C31.6044 1.45078 31.2626 1.3125 30.9062 1.3125H12.0938C11.7374 1.3125 11.3956 1.45078 11.1436 1.69692C10.8916 1.94306 10.75 2.2769 10.75 2.625ZM18.1809 17.262C17.9775 17.1378 17.7438 17.0691 17.504 17.0629C17.2642 17.0568 17.0271 17.1135 16.8173 17.227C16.6075 17.3406 16.4327 17.507 16.311 17.7088C16.1892 17.9107 16.125 18.1407 16.125 18.375V31.5C16.125 31.7343 16.1892 31.9643 16.311 32.1662C16.4327 32.368 16.6075 32.5344 16.8173 32.648C17.0271 32.7615 17.2642 32.8182 17.504 32.8121C17.7438 32.8059 17.9775 32.7372 18.1809 32.613L28.9309 26.0505C29.1242 25.9325 29.2836 25.7685 29.3941 25.5738C29.5045 25.3791 29.5625 25.1601 29.5625 24.9375C29.5625 24.7149 29.5045 24.4959 29.3941 24.3012C29.2836 24.1065 29.1242 23.9425 28.9309 23.8245L18.1809 17.262Z" fill="#3936E0"/>
<path d="M4.03125 38.0625C2.9621 38.0625 1.93673 37.6477 1.18073 36.9092C0.42472 36.1708 0 35.1693 0 34.125L0 15.75C0 14.7057 0.42472 13.7042 1.18073 12.9658C1.93673 12.2273 2.9621 11.8125 4.03125 11.8125H38.9688C40.0379 11.8125 41.0633 12.2273 41.8193 12.9658C42.5753 13.7042 43 14.7057 43 15.75V34.125C43 35.1693 42.5753 36.1708 41.8193 36.9092C41.0633 37.6477 40.0379 38.0625 38.9688 38.0625H4.03125ZM38.9688 35.4375C39.3251 35.4375 39.6669 35.2992 39.9189 35.0531C40.1709 34.8069 40.3125 34.4731 40.3125 34.125V15.75C40.3125 15.4019 40.1709 15.0681 39.9189 14.8219C39.6669 14.5758 39.3251 14.4375 38.9688 14.4375H4.03125C3.67487 14.4375 3.33308 14.5758 3.08108 14.8219C2.82907 15.0681 2.6875 15.4019 2.6875 15.75V34.125C2.6875 34.4731 2.82907 34.8069 3.08108 35.0531C3.33308 35.2992 3.67487 35.4375 4.03125 35.4375H38.9688Z" fill="#3936E0"/>
</svg>
