<svg width="33" height="33" viewBox="0 0 33 33" fill="none" xmlns="http://www.w3.org/2000/svg">
<path d="M16.5 16.5C18.6383 16.5 20.689 15.6506 22.201 14.1385C23.7131 12.6265 24.5625 10.5758 24.5625 8.4375C24.5625 6.29919 23.7131 4.24846 22.201 2.73645C20.689 1.22444 18.6383 0.375 16.5 0.375C14.3617 0.375 12.311 1.22444 10.799 2.73645C9.28694 4.24846 8.4375 6.29919 8.4375 8.4375C8.4375 10.5758 9.28694 12.6265 10.799 14.1385C12.311 15.6506 14.3617 16.5 16.5 16.5ZM21.875 8.4375C21.875 9.86304 21.3087 11.2302 20.3007 12.2382C19.2927 13.2462 17.9255 13.8125 16.5 13.8125C15.0745 13.8125 13.7073 13.2462 12.6993 12.2382C11.6913 11.2302 11.125 9.86304 11.125 8.4375C11.125 7.01196 11.6913 5.64481 12.6993 4.6368C13.7073 3.62879 15.0745 3.0625 16.5 3.0625C17.9255 3.0625 19.2927 3.62879 20.3007 4.6368C21.3087 5.64481 21.875 7.01196 21.875 8.4375ZM32.625 29.9375C32.625 32.625 29.9375 32.625 29.9375 32.625H3.0625C3.0625 32.625 0.375 32.625 0.375 29.9375C0.375 27.25 3.0625 19.1875 16.5 19.1875C29.9375 19.1875 32.625 27.25 32.625 29.9375ZM29.9375 29.9268C29.9348 29.2656 29.5236 27.2769 27.7015 25.4548C25.9493 23.7025 22.6517 21.875 16.5 21.875C10.3483 21.875 7.05075 23.7025 5.2985 25.4548C3.47638 27.2769 3.06787 29.2656 3.0625 29.9268H29.9375Z" fill="#3936E0"/>
</svg>
