<svg width="38" height="38" viewBox="0 0 38 38" fill="none" xmlns="http://www.w3.org/2000/svg">
<path d="M27.8871 24.5673C30.1868 21.4292 31.2168 17.5385 30.7711 13.6735C30.3253 9.80859 28.4367 6.25448 25.483 3.72223C22.5294 1.18999 18.7285 -0.133642 14.8408 0.0161569C10.9532 0.165956 7.26542 1.77813 4.51537 4.53016C1.76532 7.28218 0.155779 10.9711 0.00876196 14.8589C-0.138255 18.7466 1.18809 22.5466 3.72245 25.4984C6.25681 28.4503 9.81228 30.3363 13.6775 30.7793C17.5428 31.2223 21.4328 30.1895 24.5692 27.8875H24.5669C24.6365 27.9825 24.7141 28.0736 24.7996 28.1607L33.9434 37.3044C34.3887 37.7501 34.9928 38.0006 35.6228 38.0008C36.2528 38.001 36.8571 37.7509 37.3028 37.3056C37.7484 36.8603 37.9989 36.2562 37.9992 35.6261C37.9994 34.9961 37.7493 34.3918 37.304 33.9462L28.1602 24.8024C28.0754 24.7164 27.9841 24.6394 27.8871 24.5673ZM28.4999 15.4378C28.4999 17.1532 28.162 18.8518 27.5055 20.4366C26.8491 22.0214 25.8869 23.4614 24.6739 24.6744C23.461 25.8873 22.021 26.8495 20.4362 27.506C18.8513 28.1624 17.1528 28.5003 15.4374 28.5003C13.722 28.5003 12.0234 28.1624 10.4386 27.506C8.85374 26.8495 7.41374 25.8873 6.20078 24.6744C4.98781 23.4614 4.02563 22.0214 3.36918 20.4366C2.71273 18.8518 2.37486 17.1532 2.37486 15.4378C2.37486 11.9734 3.75108 8.65091 6.20078 6.20122C8.65047 3.75152 11.973 2.3753 15.4374 2.3753C18.9017 2.3753 22.2242 3.75152 24.6739 6.20122C27.1236 8.65091 28.4999 11.9734 28.4999 15.4378Z" fill="black"/>
</svg>
