<svg width="38" height="38" viewBox="0 0 38 38" fill="none" xmlns="http://www.w3.org/2000/svg">
<path d="M27.8872 24.5673C30.1869 21.4292 31.2169 17.5385 30.7712 13.6735C30.3254 9.80859 28.4368 6.25448 25.4831 3.72223C22.5295 1.18999 18.7286 -0.133642 14.8409 0.0161569C10.9533 0.165956 7.2655 1.77813 4.51545 4.53016C1.76539 7.28218 0.155855 10.9711 0.00883825 14.8589C-0.138179 18.7466 1.18817 22.5466 3.72253 25.4984C6.25689 28.4503 9.81235 30.3363 13.6776 30.7793C17.5429 31.2223 21.4328 30.1895 24.5693 27.8875H24.5669C24.6366 27.9825 24.7142 28.0736 24.7997 28.1607L33.9434 37.3044C34.3888 37.7501 34.9929 38.0006 35.6229 38.0008C36.2529 38.001 36.8572 37.7509 37.3029 37.3056C37.7485 36.8603 37.999 36.2562 37.9992 35.6261C37.9995 34.9961 37.7494 34.3918 37.3041 33.9462L28.1603 24.8024C28.0754 24.7164 27.9841 24.6394 27.8872 24.5673ZM28.4999 15.4378C28.4999 17.1532 28.1621 18.8518 27.5056 20.4366C26.8492 22.0214 25.887 23.4614 24.674 24.6744C23.4611 25.8873 22.0211 26.8495 20.4362 27.506C18.8514 28.1624 17.1528 28.5003 15.4374 28.5003C13.722 28.5003 12.0234 28.1624 10.4386 27.506C8.85382 26.8495 7.41382 25.8873 6.20085 24.6744C4.98789 23.4614 4.02571 22.0214 3.36926 20.4366C2.71281 18.8518 2.37494 17.1532 2.37494 15.4378C2.37494 11.9734 3.75116 8.65091 6.20085 6.20122C8.65055 3.75152 11.973 2.3753 15.4374 2.3753C18.9018 2.3753 22.2243 3.75152 24.674 6.20122C27.1237 8.65091 28.4999 11.9734 28.4999 15.4378Z" fill="#3936E0"/>
</svg>
