<svg width="47" height="47" viewBox="0 0 47 47" fill="none" xmlns="http://www.w3.org/2000/svg">
<path fill-rule="evenodd" clip-rule="evenodd" d="M44.0625 23.5C44.0625 23.1105 43.9078 22.7369 43.6323 22.4614C43.3569 22.186 42.9833 22.0312 42.5938 22.0312H7.95181L17.1961 12.7899C17.3327 12.6533 17.441 12.4912 17.5149 12.3128C17.5888 12.1343 17.6269 11.9431 17.6269 11.75C17.6269 11.5569 17.5888 11.3656 17.5149 11.1872C17.441 11.0088 17.3327 10.8467 17.1961 10.7101C17.0596 10.5736 16.8974 10.4652 16.719 10.3913C16.5406 10.3174 16.3494 10.2794 16.1562 10.2794C15.9631 10.2794 15.7719 10.3174 15.5935 10.3913C15.4151 10.4652 15.2529 10.5736 15.1164 10.7101L3.36638 22.4601C3.2296 22.5966 3.12108 22.7586 3.04703 22.9371C2.97299 23.1155 2.93488 23.3068 2.93488 23.5C2.93488 23.6932 2.97299 23.8845 3.04703 24.0629C3.12108 24.2414 3.2296 24.4034 3.36638 24.5399L15.1164 36.2899C15.2529 36.4264 15.4151 36.5347 15.5935 36.6087C15.7719 36.6826 15.9631 36.7206 16.1562 36.7206C16.3494 36.7206 16.5406 36.6826 16.719 36.6087C16.8974 36.5347 17.0596 36.4264 17.1961 36.2899C17.3327 36.1533 17.441 35.9912 17.5149 35.8128C17.5888 35.6343 17.6269 35.4431 17.6269 35.25C17.6269 35.0569 17.5888 34.8656 17.5149 34.6872C17.441 34.5088 17.3327 34.3467 17.1961 34.2101L7.95181 24.9687H42.5938C42.9833 24.9687 43.3569 24.814 43.6323 24.5386C43.9078 24.2631 44.0625 23.8895 44.0625 23.5Z" fill="#5F5DE5"/>
</svg>
