<svg width="51" height="51" viewBox="0 0 51 51" fill="none" xmlns="http://www.w3.org/2000/svg">
<g clip-path="url(#clip0_228_126)">
<path d="M51 25.5C51 32.263 48.3134 38.749 43.5312 43.5312C38.749 48.3134 32.263 51 25.5 51C18.737 51 12.251 48.3134 7.46878 43.5312C2.6866 38.749 0 32.263 0 25.5C0 18.737 2.6866 12.251 7.46878 7.46878C12.251 2.6866 18.737 0 25.5 0C32.263 0 38.749 2.6866 43.5312 7.46878C48.3134 12.251 51 18.737 51 25.5ZM38.3456 15.8419C38.1179 15.615 37.8468 15.4363 37.5485 15.3166C37.2502 15.1969 36.9308 15.1386 36.6095 15.1451C36.2881 15.1517 35.9714 15.223 35.6782 15.3547C35.385 15.4865 35.1214 15.676 34.9031 15.912L23.8329 30.0167L17.1615 23.3421C16.7083 22.9198 16.1089 22.6899 15.4896 22.7008C14.8702 22.7117 14.2793 22.9626 13.8413 23.4006C13.4033 23.8386 13.1524 24.4296 13.1415 25.0489C13.1306 25.6682 13.3605 26.2676 13.7827 26.7208L22.2169 35.1581C22.4441 35.3849 22.7146 35.5636 23.0124 35.6836C23.3102 35.8036 23.6291 35.8623 23.9501 35.8564C24.271 35.8504 24.5875 35.7799 24.8807 35.649C25.1738 35.5181 25.4375 35.3294 25.6562 35.0944L38.3807 19.1887C38.8145 18.7377 39.0541 18.1346 39.0482 17.5088C39.0422 16.883 38.7911 16.2846 38.3488 15.8419H38.3456Z" fill="#5F5DE5"/>
</g>
<defs>
<clipPath id="clip0_228_126">
<rect width="51" height="51" fill="white"/>
</clipPath>
</defs>
</svg>
