<svg width="51" height="51" viewBox="0 0 51 51" fill="none" xmlns="http://www.w3.org/2000/svg">
<g clip-path="url(#clip0_83_1744)">
<path d="M25.5 51C32.263 51 38.749 48.3134 43.5312 43.5312C48.3134 38.749 51 32.263 51 25.5C51 18.737 48.3134 12.251 43.5312 7.46878C38.749 2.6866 32.263 0 25.5 0C18.737 0 12.251 2.6866 7.46878 7.46878C2.6866 12.251 0 18.737 0 25.5C0 32.263 2.6866 38.749 7.46878 43.5312C12.251 48.3134 18.737 51 25.5 51ZM28.4644 20.9992L25.2769 35.9964C25.0537 37.0802 25.3693 37.6954 26.2459 37.6954C26.8643 37.6954 27.7982 37.4722 28.4325 36.9113L28.152 38.2373C27.2372 39.3401 25.2195 40.1434 23.4823 40.1434C21.2415 40.1434 20.2884 38.7982 20.9068 35.9391L23.2592 24.8848C23.4632 23.9509 23.2783 23.613 22.3444 23.3867L20.9068 23.1285L21.1682 21.9141L28.4644 20.9992ZM25.5 17.5312C24.6546 17.5312 23.8439 17.1954 23.2461 16.5977C22.6483 15.9999 22.3125 15.1891 22.3125 14.3438C22.3125 13.4984 22.6483 12.6876 23.2461 12.0898C23.8439 11.4921 24.6546 11.1562 25.5 11.1562C26.3454 11.1562 27.1561 11.4921 27.7539 12.0898C28.3517 12.6876 28.6875 13.4984 28.6875 14.3438C28.6875 15.1891 28.3517 15.9999 27.7539 16.5977C27.1561 17.1954 26.3454 17.5312 25.5 17.5312Z" fill="#5F5DE5"/>
</g>
<defs>
<clipPath id="clip0_83_1744">
<rect width="51" height="51" fill="white"/>
</clipPath>
</defs>
</svg>
