<svg width="256" height="22" viewBox="0 0 256 22" fill="none" xmlns="http://www.w3.org/2000/svg">
<path d="M0.333333 11C0.333333 16.891 5.10896 21.6667 11 21.6667C16.891 21.6667 21.6667 16.891 21.6667 11C21.6667 5.10896 16.891 0.333333 11 0.333333C5.10896 0.333333 0.333333 5.10896 0.333333 11ZM234.333 11C234.333 16.891 239.109 21.6667 245 21.6667C250.891 21.6667 255.667 16.891 255.667 11C255.667 5.10896 250.891 0.333333 245 0.333333C239.109 0.333333 234.333 5.10896 234.333 11ZM11 13H245V9H11V13Z" fill="#3D5BF9"/>
</svg>
