<svg width="13" height="13" viewBox="0 0 13 13" fill="none" xmlns="http://www.w3.org/2000/svg">
<g clip-path="url(#clip0_83_1742)">
<path d="M2.32863 12.0656C2.26525 12.4264 2.62113 12.7083 2.93475 12.5474L6.50163 10.7144L10.0677 12.5474C10.3813 12.7083 10.7372 12.4264 10.6738 12.0664L9.99944 8.22331L12.8611 5.49656C13.1292 5.24144 12.9911 4.77506 12.6319 4.72469L8.65232 4.15919L6.87782 0.643499C6.84401 0.572233 6.79068 0.512022 6.72402 0.469861C6.65736 0.4277 6.5801 0.405319 6.50122 0.405319C6.42235 0.405319 6.34509 0.4277 6.27843 0.469861C6.21176 0.512022 6.15843 0.572233 6.12463 0.643499L4.35013 4.16L0.370505 4.7255C0.012192 4.77587 -0.126745 5.24225 0.140567 5.49737L3.003 8.22412L2.32863 12.0672V12.0656ZM6.31394 9.81744L3.31907 11.3563L3.88294 8.14125C3.89652 8.06724 3.89152 7.99102 3.86841 7.91941C3.8453 7.8478 3.80479 7.78304 3.7505 7.73094L1.38938 5.48031L4.68163 5.01231C4.74969 5.00169 4.81421 4.9749 4.86977 4.93418C4.92533 4.89346 4.97031 4.84001 5.00094 4.77831L6.5 1.80619L8.00069 4.77831C8.03132 4.84001 8.0763 4.89346 8.13187 4.93418C8.18743 4.9749 8.25194 5.00169 8.32 5.01231L11.6123 5.4795L9.25113 7.73012C9.19672 7.78231 9.15613 7.84721 9.13302 7.91897C9.1099 7.99073 9.10498 8.06711 9.11869 8.14125L9.68257 11.3563L6.68769 9.81744C6.62984 9.78738 6.5656 9.77169 6.50041 9.77169C6.43522 9.77169 6.37179 9.78738 6.31394 9.81744Z" fill="#5F5DE5"/>
</g>
<defs>
<clipPath id="clip0_83_1742">
<rect width="13" height="13" fill="white"/>
</clipPath>
</defs>
</svg>
