<svg width="27" height="24" viewBox="0 0 27 24" fill="none" xmlns="http://www.w3.org/2000/svg">
<path d="M17.2821 11.29L11.0997 5.64001C10.9981 5.54628 10.8773 5.47188 10.7442 5.42111C10.6111 5.37035 10.4683 5.34421 10.3241 5.34421C10.1799 5.34421 10.0372 5.37035 9.90407 5.42111C9.77096 5.47188 9.65015 5.54628 9.54861 5.64001C9.34516 5.82737 9.23097 6.08082 9.23097 6.34501C9.23097 6.60919 9.34516 6.86264 9.54861 7.05001L14.9555 12.05L9.54861 17C9.34516 17.1874 9.23097 17.4408 9.23097 17.705C9.23097 17.9692 9.34516 18.2226 9.54861 18.41C9.64977 18.5045 9.77041 18.5797 9.90354 18.6312C10.0367 18.6827 10.1796 18.7095 10.3241 18.71C10.4687 18.7095 10.6116 18.6827 10.7448 18.6312C10.8779 18.5797 10.9985 18.5045 11.0997 18.41L17.2821 12.76C17.393 12.6664 17.4815 12.5527 17.542 12.4262C17.6025 12.2997 17.6338 12.1631 17.6338 12.025C17.6338 11.8869 17.6025 11.7503 17.542 11.6238C17.4815 11.4973 17.393 11.3836 17.2821 11.29V11.29Z" fill="black"/>
</svg>
