<svg width="25" height="26" viewBox="0 0 25 26" fill="none" xmlns="http://www.w3.org/2000/svg">
<g clip-path="url(#clip0_81_493)">
<path d="M0.0307622 14C0.0302478 12.6788 0.465856 11.3943 1.26999 10.346C2.07412 9.2976 3.2018 8.54399 4.47802 8.20207C5.75425 7.86014 7.10765 7.94903 8.32819 8.45494C9.54873 8.96085 10.5682 9.85548 11.2283 11H21.0308C21.1293 10.9998 21.2269 11.0191 21.3181 11.0567C21.4092 11.0942 21.492 11.1494 21.5618 11.219L23.8118 13.469C23.8816 13.5387 23.937 13.6214 23.9748 13.7126C24.0126 13.8037 24.0321 13.9014 24.0321 14C24.0321 14.0987 24.0126 14.1963 23.9748 14.2875C23.937 14.3786 23.8816 14.4613 23.8118 14.531L21.5618 16.781C21.4921 16.8508 21.4093 16.9063 21.3182 16.9441C21.2271 16.9819 21.1294 17.0013 21.0308 17.0013C20.9321 17.0013 20.8344 16.9819 20.7433 16.9441C20.6522 16.9063 20.5694 16.8508 20.4998 16.781L19.5308 15.8105L18.5618 16.781C18.4921 16.8508 18.4093 16.9063 18.3182 16.9441C18.2271 16.9819 18.1294 17.0013 18.0308 17.0013C17.9321 17.0013 17.8344 16.9819 17.7433 16.9441C17.6522 16.9063 17.5694 16.8508 17.4998 16.781L16.5308 15.8105L15.5618 16.781C15.4921 16.8508 15.4093 16.9063 15.3182 16.9441C15.2271 16.9819 15.1294 17.0013 15.0308 17.0013C14.9321 17.0013 14.8344 16.9819 14.7433 16.9441C14.6522 16.9063 14.5694 16.8508 14.4998 16.781L13.5308 15.8105L12.5618 16.781C12.492 16.8506 12.4092 16.9058 12.3181 16.9434C12.2269 16.9809 12.1293 17.0002 12.0308 17H11.2283C10.5682 18.1445 9.54873 19.0392 8.32819 19.5451C7.10765 20.051 5.75425 20.1399 4.47802 19.7979C3.2018 19.456 2.07412 18.7024 1.26999 17.6541C0.465856 16.6057 0.0302478 15.3212 0.0307622 14ZM6.03076 9.5C5.22547 9.50031 4.43502 9.7167 3.74186 10.1266C3.04871 10.5365 2.47825 11.1249 2.09 11.8304C1.70175 12.536 1.50994 13.3327 1.53457 14.1377C1.55921 14.9426 1.79938 15.7261 2.23005 16.4066C2.66071 17.087 3.26608 17.6395 3.98301 18.0062C4.69993 18.373 5.50214 18.5406 6.30594 18.4917C7.10974 18.4427 7.88568 18.179 8.55281 17.728C9.21995 17.277 9.75383 16.6552 10.0988 15.9275C10.1597 15.7996 10.2555 15.6916 10.3752 15.616C10.495 15.5403 10.6336 15.5001 10.7753 15.5H11.7203L12.9998 14.219C13.0694 14.1492 13.1522 14.0937 13.2433 14.0559C13.3344 14.0181 13.4321 13.9987 13.5308 13.9987C13.6294 13.9987 13.7271 14.0181 13.8182 14.0559C13.9093 14.0937 13.9921 14.1492 14.0618 14.219L15.0308 15.1895L15.9998 14.219C16.0694 14.1492 16.1522 14.0937 16.2433 14.0559C16.3344 14.0181 16.4321 13.9987 16.5308 13.9987C16.6294 13.9987 16.7271 14.0181 16.8182 14.0559C16.9093 14.0937 16.9921 14.1492 17.0618 14.219L18.0308 15.1895L18.9998 14.219C19.0694 14.1492 19.1522 14.0937 19.2433 14.0559C19.3344 14.0181 19.4321 13.9987 19.5308 13.9987C19.6294 13.9987 19.7271 14.0181 19.8182 14.0559C19.9093 14.0937 19.9921 14.1492 20.0618 14.219L21.0308 15.1895L22.2203 14L20.7203 12.5H10.7753C10.6336 12.4999 10.495 12.4597 10.3752 12.384C10.2555 12.3084 10.1597 12.2004 10.0988 12.0725C9.7338 11.3026 9.15774 10.6521 8.4376 10.1967C7.71746 9.74127 6.88282 9.49968 6.03076 9.5Z" fill="black"/>
<path d="M6.03076 14C6.03076 14.3978 5.87273 14.7794 5.59142 15.0607C5.31012 15.342 4.92859 15.5 4.53076 15.5C4.13294 15.5 3.75141 15.342 3.4701 15.0607C3.1888 14.7794 3.03076 14.3978 3.03076 14C3.03076 13.6022 3.1888 13.2206 3.4701 12.9393C3.75141 12.658 4.13294 12.5 4.53076 12.5C4.92859 12.5 5.31012 12.658 5.59142 12.9393C5.87273 13.2206 6.03076 13.6022 6.03076 14Z" fill="black"/>
</g>
<defs>
<clipPath id="clip0_81_493">
<rect width="24" height="24" fill="white" transform="translate(0.0307617 2)"/>
</clipPath>
</defs>
</svg>
