<svg width="25" height="24" viewBox="0 0 25 24" fill="none" xmlns="http://www.w3.org/2000/svg">
<g clip-path="url(#clip0_81_481)">
<path d="M1.93848 6.25C1.93848 5.55381 2.21504 4.88613 2.70732 4.39384C3.1996 3.90156 3.86728 3.625 4.56348 3.625H20.3135C21.0097 3.625 21.6773 3.90156 22.1696 4.39384C22.6619 4.88613 22.9385 5.55381 22.9385 6.25V16.75C22.9385 17.4462 22.6619 18.1139 22.1696 18.6062C21.6773 19.0984 21.0097 19.375 20.3135 19.375H4.56348C3.86728 19.375 3.1996 19.0984 2.70732 18.6062C2.21504 18.1139 1.93848 17.4462 1.93848 16.75V6.25ZM4.56348 4.9375C4.21538 4.9375 3.88154 5.07578 3.6354 5.32192C3.38926 5.56806 3.25098 5.9019 3.25098 6.25V6.53481L12.4385 12.0473L21.626 6.53481V6.25C21.626 5.9019 21.4877 5.56806 21.2416 5.32192C20.9954 5.07578 20.6616 4.9375 20.3135 4.9375H4.56348ZM21.626 8.06519L15.4467 11.773L21.626 15.5753V8.06519ZM21.5814 17.0899L14.1789 12.5343L12.4385 13.5777L10.6981 12.5343L3.2956 17.0886C3.37019 17.3679 3.53489 17.6148 3.76415 17.7909C3.99341 17.967 4.27439 18.0625 4.56348 18.0625H20.3135C20.6024 18.0625 20.8832 17.9672 21.1125 17.7914C21.3417 17.6156 21.5065 17.369 21.5814 17.0899ZM3.25098 15.5753L9.43023 11.773L3.25098 8.06519V15.5753Z" fill="black"/>
</g>
<defs>
<clipPath id="clip0_81_481">
<rect width="21" height="21" fill="white" transform="translate(1.93848 1)"/>
</clipPath>
</defs>
</svg>
