<svg width="25" height="24" viewBox="0 0 25 24" fill="none" xmlns="http://www.w3.org/2000/svg">
<g clip-path="url(#clip0_78_562)">
<path d="M17.4234 1.17326C17.4786 1.11797 17.5441 1.0741 17.6162 1.04417C17.6883 1.01423 17.7657 0.998825 17.8438 0.998825C17.9219 0.998825 17.9992 1.01423 18.0713 1.04417C18.1435 1.0741 18.209 1.11797 18.2642 1.17326L21.8267 4.73576C21.8819 4.79092 21.9258 4.85644 21.9557 4.92857C21.9857 5.00071 22.0011 5.07804 22.0011 5.15614C22.0011 5.23424 21.9857 5.31157 21.9557 5.3837C21.9258 5.45584 21.8819 5.52136 21.8267 5.57651L9.95165 17.4515C9.89467 17.5081 9.8268 17.5525 9.75215 17.5821L3.81465 19.9571C3.70675 20.0003 3.58855 20.0109 3.4747 19.9875C3.36084 19.9642 3.25635 19.9079 3.17416 19.8258C3.09198 19.7436 3.03573 19.6391 3.01237 19.5252C2.98902 19.4114 2.99959 19.2932 3.04278 19.1853L5.41778 13.2478C5.44738 13.1731 5.49182 13.1052 5.5484 13.0483L17.4234 1.17326ZM16.3083 3.96864L19.0313 6.69157L20.5667 5.15614L17.8438 2.4332L16.3083 3.96864ZM18.1917 7.53114L15.4688 4.8082L7.75003 12.5269V12.8749H8.34378C8.50125 12.8749 8.65227 12.9374 8.76362 13.0488C8.87497 13.1601 8.93753 13.3112 8.93753 13.4686V14.0624H9.53128C9.68875 14.0624 9.83977 14.1249 9.95112 14.2363C10.0625 14.3476 10.125 14.4987 10.125 14.6561V15.2499H10.473L18.1917 7.53114ZM6.60053 13.6764L6.47465 13.8023L4.66015 18.3398L9.19759 16.5253L9.32347 16.3994C9.2102 16.3571 9.11256 16.2812 9.04359 16.1819C8.97462 16.0826 8.93762 15.9645 8.93753 15.8436V15.2499H8.34378C8.18631 15.2499 8.03528 15.1873 7.92393 15.076C7.81258 14.9646 7.75003 14.8136 7.75003 14.6561V14.0624H7.15628C7.03537 14.0623 6.91737 14.0253 6.81805 13.9563C6.71874 13.8874 6.64285 13.7897 6.60053 13.6764Z" fill="black"/>
</g>
<defs>
<clipPath id="clip0_78_562">
<rect width="19" height="19" fill="white" transform="translate(3 1)"/>
</clipPath>
</defs>
</svg>
